<?xml version="1.0" encoding="utf-8"?>
<!-- Generator: Adobe Illustrator 25.2.0, SVG Export Plug-In . SVG Version: 6.00 Build 0)  -->
<svg version="1.1" id="Capa_1" xmlns="http://www.w3.org/2000/svg" xmlns:xlink="http://www.w3.org/1999/xlink" x="0px" y="0px"
	 viewBox="0 0 16 16" style="enable-background:new 0 0 16 16;" xml:space="preserve">
<style type="text/css">
	.st0{fill:#FFFFFF;}
</style>
<path class="st0" d="M8.2,1.1c-0.1,0-0.3,0-0.4,0l-6,2.4l2.4,1L10.4,2C10.4,2,8.2,1.1,8.2,1.1z M11.8,2.5L5.6,5L8,6l6.2-2.5
	L11.8,2.5z M15,4.2L8.5,6.8v7.9l6.5-2.6V4.2L15,4.2z M7.5,14.8V6.8L1,4.2v7.9C1,12.2,7.5,14.8,7.5,14.8z M7.4,0.2
	C7.8,0,8.2,0,8.6,0.2L15.7,3C15.9,3.1,16,3.3,16,3.5v8.7c0,0.4-0.2,0.8-0.6,0.9L8.2,16c-0.1,0-0.3,0-0.4,0l-7.2-2.9
	C0.2,12.9,0,12.6,0,12.2V3.5C0,3.3,0.1,3.1,0.3,3L7.4,0.2z"/>
</svg>
