<?xml version="1.0" encoding="utf-8"?>
<!-- Generator: Adobe Illustrator 25.2.0, SVG Export Plug-In . SVG Version: 6.00 Build 0)  -->
<svg version="1.1" id="Capa_1" xmlns="http://www.w3.org/2000/svg" xmlns:xlink="http://www.w3.org/1999/xlink" x="0px" y="0px"
	 viewBox="0 0 16 16" style="enable-background:new 0 0 16 16;" xml:space="preserve">
<style type="text/css">
	.st0{fill:#FFFFFF;}
</style>
<path class="st0" d="M0,2.5C0,2.2,0.2,2,0.5,2H2c0.2,0,0.4,0.2,0.5,0.4L2.9,4h11.6C14.8,4,15,4.2,15,4.5c0,0,0,0.1,0,0.1l-1.5,6
	C13.4,10.8,13.2,11,13,11H4c-0.2,0-0.4-0.2-0.5-0.4L1.6,3H0.5C0.2,3,0,2.8,0,2.5z M3.1,5l0.5,2H5V5H3.1z M6,5v2h2V5H6z M9,5v2h2V5H9
	z M12,5v2h1.4l0.5-2H12z M13.1,8H12v2h0.6L13.1,8z M11,8H9v2h2V8z M8,8H6v2h2V8z M5,8H3.9l0.5,2H5V8z M5,13c-0.6,0-1,0.4-1,1
	s0.4,1,1,1s1-0.4,1-1S5.6,13,5,13z M3,14c0-1.1,0.9-2,2-2s2,0.9,2,2s-0.9,2-2,2S3,15.1,3,14z M12,13c-0.6,0-1,0.4-1,1s0.4,1,1,1
	s1-0.4,1-1S12.6,13,12,13z M10,14c0-1.1,0.9-2,2-2s2,0.9,2,2s-0.9,2-2,2S10,15.1,10,14z"/>
</svg>
